<svg xmlns="http://www.w3.org/2000/svg" width="600" height="600" viewBox="0 0 600 600" role="img" aria-label="Language &amp; Tooling Stack" font-family="ui-monospace,SFMono-Regular,Menlo,Consolas,Liberation Mono,monospace"><defs><filter id="shadow" x="-20%" y="-20%" width="140%" height="150%"><feDropShadow dx="0" dy="12" stdDeviation="16" flood-color="#02050B" flood-opacity=".28"/></filter><filter id="glow" x="-100%" y="-100%" width="300%" height="300%"><feGaussianBlur stdDeviation="3" result="b"/><feFlood flood-color="#22D3EE" flood-opacity=".35"/><feComposite in2="b" operator="in"/><feMerge><feMergeNode/><feMergeNode in="SourceGraphic"/></feMerge></filter></defs><rect width="600" height="600" rx="18" fill="#0A101F"/><rect x="13" y="13" width="574" height="574" rx="13" fill="#0D1628" stroke="#25344C" filter="url(#shadow)"/><path d="M13 62H587" stroke="#25344C"/><circle cx="38" cy="38" r="6" fill="#FF5F57"/><circle cx="59" cy="38" r="6" fill="#FEBC2E"/><circle cx="80" cy="38" r="6" fill="#28C840"/><text x="300" y="43" font-size="13" fill="#8291A8" text-anchor="middle" letter-spacing=".4">radar.sh --stack</text><text x="35" y="95" font-size="13" fill="#22D3EE" font-weight="700" letter-spacing="1.2">SIGNAL.STACK</text><text x="565" y="95" font-size="11" fill="#8291A8" text-anchor="end">SELF-RATED · 0-100</text><path d="M35 110H565" stroke="#25344C"/><g transform="translate(300,330)"><clipPath id="face"><polygon points="0,-132 114.3,-66 114.3,66 0,132 -114.3,66 -114.3,-66"/></clipPath><pattern id="grain" width="10" height="10" patternUnits="userSpaceOnUse"><circle cx="1" cy="1" r=".8" fill="#25344C"/></pattern><rect x="-132" y="-132" width="264" height="264" fill="url(#grain)" opacity=".7" clip-path="url(#face)"/><polygon points="0,-33 28.6,-16.5 28.6,16.5 0,33 -28.6,16.5 -28.6,-16.5" fill="none" stroke="#25344C" stroke-dasharray="2 4"/><polygon points="0,-66 57.2,-33 57.2,33 0,66 -57.2,33 -57.2,-33" fill="none" stroke="#25344C" stroke-dasharray="2 4"/><polygon points="0,-99 85.7,-49.5 85.7,49.5 0,99 -85.7,49.5 -85.7,-49.5" fill="none" stroke="#25344C" stroke-dasharray="2 4"/><polygon points="0,-132 114.3,-66 114.3,66 0,132 -114.3,66 -114.3,-66" fill="none" stroke="#25344C"/><line x2="0" y2="-132" stroke="#25344C"/><line x2="114.3" y2="-66" stroke="#25344C"/><line x2="114.3" y2="66" stroke="#25344C"/><line x2="0" y2="132" stroke="#25344C"/><line x2="-114.3" y2="66" stroke="#25344C"/><line x2="-114.3" y2="-66" stroke="#25344C"/><text x="20.5" y="-25.6" font-size="9" fill="#8291A8">25</text><text x="37" y="-54.2" font-size="9" fill="#8291A8">50</text><text x="53.5" y="-82.7" font-size="9" fill="#8291A8">75</text><text x="70" y="-111.3" font-size="9" fill="#8291A8">100</text><g clip-path="url(#face)"><g><animateTransform attributeName="transform" type="rotate" from="0" to="360" begin="1.2s" dur="6.0s" repeatCount="indefinite"/><path d="M0 0L-6.9 -131.8A132 132 0 0 1 0 -132Z" fill="#AA9BEF" opacity="0.260"/><path d="M0 0L-13.8 -131.3A132 132 0 0 1 -6.9 -131.8Z" fill="#AA9BEF" opacity="0.234"/><path d="M0 0L-20.6 -130.4A132 132 0 0 1 -13.8 -131.3Z" fill="#AA9BEF" opacity="0.210"/><path d="M0 0L-27.4 -129.1A132 132 0 0 1 -20.6 -130.4Z" fill="#AA9BEF" opacity="0.187"/><path d="M0 0L-34.2 -127.5A132 132 0 0 1 -27.4 -129.1Z" fill="#AA9BEF" opacity="0.164"/><path d="M0 0L-40.8 -125.5A132 132 0 0 1 -34.2 -127.5Z" fill="#AA9BEF" opacity="0.143"/><path d="M0 0L-47.3 -123.2A132 132 0 0 1 -40.8 -125.5Z" fill="#AA9BEF" opacity="0.123"/><path d="M0 0L-53.7 -120.6A132 132 0 0 1 -47.3 -123.2Z" fill="#AA9BEF" opacity="0.104"/><path d="M0 0L-59.9 -117.6A132 132 0 0 1 -53.7 -120.6Z" fill="#AA9BEF" opacity="0.086"/><path d="M0 0L-66 -114.3A132 132 0 0 1 -59.9 -117.6Z" fill="#AA9BEF" opacity="0.069"/><path d="M0 0L-71.9 -110.7A132 132 0 0 1 -66 -114.3Z" fill="#AA9BEF" opacity="0.054"/><path d="M0 0L-77.6 -106.8A132 132 0 0 1 -71.9 -110.7Z" fill="#AA9BEF" opacity="0.040"/><path d="M0 0L-83.1 -102.6A132 132 0 0 1 -77.6 -106.8Z" fill="#AA9BEF" opacity="0.028"/><path d="M0 0L-88.3 -98.1A132 132 0 0 1 -83.1 -102.6Z" fill="#AA9BEF" opacity="0.018"/><path d="M0 0L-93.3 -93.3A132 132 0 0 1 -88.3 -98.1Z" fill="#AA9BEF" opacity="0.009"/><path d="M0 0L-98.1 -88.3A132 132 0 0 1 -93.3 -93.3Z" fill="#AA9BEF" opacity="0.003"/><line y2="-132" stroke="#AA9BEF" stroke-width="1.5" opacity=".85"/></g></g><g><animateTransform attributeName="transform" type="scale" values="0.04;1" dur="1.1s" calcMode="spline" keyTimes="0;1" keySplines="0.22 1 0.36 1" fill="freeze"/><polygon points="0,-121.4 97.2,-56.1 96,55.4 0,108.2 -80,46.2 -89.2,-51.5" fill="#AA9BEF" fill-opacity=".16" stroke="#AA9BEF" stroke-width="2" stroke-linejoin="round"/><circle cx="0" cy="-121.4" r="4" fill="none" stroke="#AA9BEF" stroke-width="1.5" opacity="0"><animate attributeName="r" values="4;16;16" keyTimes="0;.3;1" begin="1.20s" dur="6.0s" repeatCount="indefinite"/><animate attributeName="opacity" values=".9;0;0" keyTimes="0;.3;1" begin="1.20s" dur="6.0s" repeatCount="indefinite"/></circle><circle cx="0" cy="-121.4" r="4.5" fill="#AA9BEF" stroke="#0D1628" stroke-width="2"/><circle cx="97.2" cy="-56.1" r="4" fill="none" stroke="#AA9BEF" stroke-width="1.5" opacity="0"><animate attributeName="r" values="4;16;16" keyTimes="0;.3;1" begin="2.20s" dur="6.0s" repeatCount="indefinite"/><animate attributeName="opacity" values=".9;0;0" keyTimes="0;.3;1" begin="2.20s" dur="6.0s" repeatCount="indefinite"/></circle><circle cx="97.2" cy="-56.1" r="4.5" fill="#AA9BEF" stroke="#0D1628" stroke-width="2"/><circle cx="96" cy="55.4" r="4" fill="none" stroke="#AA9BEF" stroke-width="1.5" opacity="0"><animate attributeName="r" values="4;16;16" keyTimes="0;.3;1" begin="3.20s" dur="6.0s" repeatCount="indefinite"/><animate attributeName="opacity" values=".9;0;0" keyTimes="0;.3;1" begin="3.20s" dur="6.0s" repeatCount="indefinite"/></circle><circle cx="96" cy="55.4" r="4.5" fill="#AA9BEF" stroke="#0D1628" stroke-width="2"/><circle cx="0" cy="108.2" r="4" fill="none" stroke="#AA9BEF" stroke-width="1.5" opacity="0"><animate attributeName="r" values="4;16;16" keyTimes="0;.3;1" begin="4.20s" dur="6.0s" repeatCount="indefinite"/><animate attributeName="opacity" values=".9;0;0" keyTimes="0;.3;1" begin="4.20s" dur="6.0s" repeatCount="indefinite"/></circle><circle cx="0" cy="108.2" r="4.5" fill="#AA9BEF" stroke="#0D1628" stroke-width="2"/><circle cx="-80" cy="46.2" r="4" fill="none" stroke="#AA9BEF" stroke-width="1.5" opacity="0"><animate attributeName="r" values="4;16;16" keyTimes="0;.3;1" begin="5.20s" dur="6.0s" repeatCount="indefinite"/><animate attributeName="opacity" values=".9;0;0" keyTimes="0;.3;1" begin="5.20s" dur="6.0s" repeatCount="indefinite"/></circle><circle cx="-80" cy="46.2" r="4.5" fill="#AA9BEF" stroke="#0D1628" stroke-width="2"/><circle cx="-89.2" cy="-51.5" r="4" fill="none" stroke="#AA9BEF" stroke-width="1.5" opacity="0"><animate attributeName="r" values="4;16;16" keyTimes="0;.3;1" begin="6.20s" dur="6.0s" repeatCount="indefinite"/><animate attributeName="opacity" values=".9;0;0" keyTimes="0;.3;1" begin="6.20s" dur="6.0s" repeatCount="indefinite"/></circle><circle cx="-89.2" cy="-51.5" r="4.5" fill="#AA9BEF" stroke="#0D1628" stroke-width="2"/></g><text x="0" y="-160" text-anchor="middle" font-size="15" fill="#8291A8"><tspan x="0">Python</tspan><tspan fill="#DDE7F5" font-weight="700"> 92</tspan></text><text x="131.6" y="-71" text-anchor="start" font-size="15" fill="#8291A8"><tspan x="131.6">SQL</tspan><tspan fill="#DDE7F5" font-weight="700"> 85</tspan></text><text x="131.6" y="81" text-anchor="start" font-size="15" fill="#8291A8"><tspan x="131.6">PyTorch</tspan><tspan fill="#DDE7F5" font-weight="700"> 84</tspan></text><text x="0" y="169" text-anchor="middle" font-size="15" fill="#8291A8"><tspan x="0">HuggingFace</tspan><tspan fill="#DDE7F5" font-weight="700"> 82</tspan></text><text x="-131.6" y="81" text-anchor="end" font-size="15" fill="#8291A8"><tspan x="-131.6">R</tspan><tspan fill="#DDE7F5" font-weight="700"> 70</tspan></text><text x="-131.6" y="-71" text-anchor="end" font-size="15" fill="#8291A8"><tspan x="-131.6">LangChain</tspan><tspan fill="#DDE7F5" font-weight="700"> 78</tspan></text></g><path d="M35 538H565" stroke="#25344C"/><text x="35" y="562" font-size="11" fill="#8291A8">AVG <tspan fill="#DDE7F5" font-weight="700">82</tspan> · PEAK PYTHON <tspan fill="#DDE7F5" font-weight="700">92</tspan></text><circle cx="501.8" cy="558" r="3.5" fill="#AA9BEF"><animate attributeName="opacity" values="1;.3;1" dur="1.6s" repeatCount="indefinite"/></circle><text x="565" y="562" font-size="11" fill="#8291A8" text-anchor="end" font-weight="700">SWEEP ON</text></svg>