<svg xmlns="http://www.w3.org/2000/svg" width="560" height="240" viewBox="0 0 560 240" role="img" aria-label="AWS Fraud Detection: Real-time fraud detection on 284,807 card transactions: XGBoost on a SageMaker endpoint behind Lambda + API Gateway." font-family="ui-monospace,SFMono-Regular,Menlo,Consolas,Liberation Mono,monospace"><defs><filter id="shadow" x="-20%" y="-20%" width="140%" height="150%"><feDropShadow dx="0" dy="12" stdDeviation="16" flood-color="#02050B" flood-opacity=".28"/></filter><filter id="glow" x="-100%" y="-100%" width="300%" height="300%"><feGaussianBlur stdDeviation="3" result="b"/><feFlood flood-color="#22D3EE" flood-opacity=".35"/><feComposite in2="b" operator="in"/><feMerge><feMergeNode/><feMergeNode in="SourceGraphic"/></feMerge></filter></defs><rect width="560" height="240" rx="14" fill="#0A101F"/><rect x="6" y="6" width="548" height="228" rx="11" fill="#0D1628" stroke="#25344C"/><circle cx="26" cy="27" r="5" fill="#FF5F57"/><circle cx="42" cy="27" r="5" fill="#FEBC2E"/><circle cx="58" cy="27" r="5" fill="#28C840"/><text x="280" y="31" font-size="11" fill="#8291A8" text-anchor="middle" letter-spacing=".3">~/shipped/aws-fraud-detection</text><text x="538" y="31" font-size="11" fill="#8291A8" text-anchor="end">#06</text><path d="M6 48H554" stroke="#25344C"/><rect x="6" y="47" width="548" height="2" fill="#22D3EE" opacity=".7"><animate attributeName="width" values="0;0;548" keyTimes="0;0.474;1" dur="1.90s" calcMode="spline" keySplines="0 0 1 1;0.4 0 0.2 1" fill="freeze"/></rect><rect x="22" y="62" width="95.3" height="20" rx="10" fill="#22D3EE" fill-opacity=".12" stroke="#22D3EE" stroke-opacity=".45"/><text x="32" y="76" font-size="10" fill="#22D3EE" font-weight="700" letter-spacing=".8">MLOPS · AWS</text><clipPath id="type"><rect x="16" y="90" width="528" height="80"><animate attributeName="width" values="0;0;528" keyTimes="0;0.609;1" dur="2.30s" fill="freeze"/></rect></clipPath><g clip-path="url(#type)"><text x="22" y="114" font-size="21" fill="#DDE7F5" font-weight="700">AWS Fraud Detection</text><text x="22" y="138" font-size="13" fill="#8291A8">Real-time fraud detection on 284,807 card transactions: XGBoost</text><text x="22" y="156" font-size="13" fill="#8291A8">on a SageMaker endpoint behind Lambda + API Gateway.</text></g><clipPath id="metric"><rect x="477.9" y="176.8" width="62.1" height="24.5"/></clipPath><g clip-path="url(#metric)" font-size="24" font-weight="700" fill="#DDE7F5"><g transform="translate(0 -312)"><animateTransform attributeName="transform" type="translate" values="0 0;0 0;0 -312" keyTimes="0;0.462;1" dur="2.60s" calcMode="spline" keySplines="0 0 1 1;0.3 0.7 0.2 1" fill="freeze"/><text x="479.9" y="196">0<tspan x="479.9" dy="31.2">1</tspan><tspan x="479.9" dy="31.2">2</tspan><tspan x="479.9" dy="31.2">3</tspan><tspan x="479.9" dy="31.2">4</tspan><tspan x="479.9" dy="31.2">5</tspan><tspan x="479.9" dy="31.2">6</tspan><tspan x="479.9" dy="31.2">7</tspan><tspan x="479.9" dy="31.2">8</tspan><tspan x="479.9" dy="31.2">9</tspan><tspan x="479.9" dy="31.2">0</tspan><tspan x="479.9" dy="31.2">1</tspan><tspan x="479.9" dy="31.2">2</tspan><tspan x="479.9" dy="31.2">3</tspan><tspan x="479.9" dy="31.2">4</tspan><tspan x="479.9" dy="31.2">5</tspan><tspan x="479.9" dy="31.2">6</tspan><tspan x="479.9" dy="31.2">7</tspan><tspan x="479.9" dy="31.2">8</tspan><tspan x="479.9" dy="31.2">9</tspan></text></g><text x="494.4" y="196">.</text><g transform="translate(0 -561.6)"><animateTransform attributeName="transform" type="translate" values="0 0;0 0;0 -561.6" keyTimes="0;0.423;1" dur="2.84s" calcMode="spline" keySplines="0 0 1 1;0.3 0.7 0.2 1" fill="freeze"/><text x="509" y="196">0<tspan x="509" dy="31.2">1</tspan><tspan x="509" dy="31.2">2</tspan><tspan x="509" dy="31.2">3</tspan><tspan x="509" dy="31.2">4</tspan><tspan x="509" dy="31.2">5</tspan><tspan x="509" dy="31.2">6</tspan><tspan x="509" dy="31.2">7</tspan><tspan x="509" dy="31.2">8</tspan><tspan x="509" dy="31.2">9</tspan><tspan x="509" dy="31.2">0</tspan><tspan x="509" dy="31.2">1</tspan><tspan x="509" dy="31.2">2</tspan><tspan x="509" dy="31.2">3</tspan><tspan x="509" dy="31.2">4</tspan><tspan x="509" dy="31.2">5</tspan><tspan x="509" dy="31.2">6</tspan><tspan x="509" dy="31.2">7</tspan><tspan x="509" dy="31.2">8</tspan><tspan x="509" dy="31.2">9</tspan></text></g><g transform="translate(0 -312)"><animateTransform attributeName="transform" type="translate" values="0 0;0 0;0 -312" keyTimes="0;0.405;1" dur="2.96s" calcMode="spline" keySplines="0 0 1 1;0.3 0.7 0.2 1" fill="freeze"/><text x="523.5" y="196">0<tspan x="523.5" dy="31.2">1</tspan><tspan x="523.5" dy="31.2">2</tspan><tspan x="523.5" dy="31.2">3</tspan><tspan x="523.5" dy="31.2">4</tspan><tspan x="523.5" dy="31.2">5</tspan><tspan x="523.5" dy="31.2">6</tspan><tspan x="523.5" dy="31.2">7</tspan><tspan x="523.5" dy="31.2">8</tspan><tspan x="523.5" dy="31.2">9</tspan><tspan x="523.5" dy="31.2">0</tspan><tspan x="523.5" dy="31.2">1</tspan><tspan x="523.5" dy="31.2">2</tspan><tspan x="523.5" dy="31.2">3</tspan><tspan x="523.5" dy="31.2">4</tspan><tspan x="523.5" dy="31.2">5</tspan><tspan x="523.5" dy="31.2">6</tspan><tspan x="523.5" dy="31.2">7</tspan><tspan x="523.5" dy="31.2">8</tspan><tspan x="523.5" dy="31.2">9</tspan></text></g></g><text x="471.9" y="196" font-size="10" fill="#8291A8" text-anchor="end">fraud F1</text><rect x="22" y="178" width="62.6" height="22" rx="4" fill="#101B30" stroke="#25344C"/><text x="30" y="193" font-size="11" fill="#DDE7F5">XGBoost</text><rect x="92.6" y="178" width="75.9" height="22" rx="4" fill="#101B30" stroke="#25344C"/><text x="100.6" y="193" font-size="11" fill="#DDE7F5">SageMaker</text><rect x="176.5" y="178" width="55.9" height="22" rx="4" fill="#101B30" stroke="#25344C"/><text x="184.5" y="193" font-size="11" fill="#DDE7F5">Lambda</text><path d="M22 208H538" stroke="#25344C" stroke-dasharray="1 5"/><circle cx="26" cy="222" r="3.5" fill="#10B981"><animate attributeName="opacity" values="1;.3;1" dur="1.6s" begin="0.90s" repeatCount="indefinite"/></circle><text x="36" y="226" font-size="10" fill="#10B981" font-weight="700" letter-spacing=".6">SOURCE ON GITHUB</text><text x="538" y="226" font-size="10" fill="#8291A8" text-anchor="end">CODE</text></svg>