<svg xmlns="http://www.w3.org/2000/svg" width="560" height="240" viewBox="0 0 560 240" role="img" aria-label="saarthi-cli: A terminal AI chat app with persistent memory, streaming replies, saved sessions and multi-provider models." font-family="ui-monospace,SFMono-Regular,Menlo,Consolas,Liberation Mono,monospace"><defs><filter id="shadow" x="-20%" y="-20%" width="140%" height="150%"><feDropShadow dx="0" dy="12" stdDeviation="16" flood-color="#02050B" flood-opacity=".28"/></filter><filter id="glow" x="-100%" y="-100%" width="300%" height="300%"><feGaussianBlur stdDeviation="3" result="b"/><feFlood flood-color="#22D3EE" flood-opacity=".35"/><feComposite in2="b" operator="in"/><feMerge><feMergeNode/><feMergeNode in="SourceGraphic"/></feMerge></filter></defs><rect width="560" height="240" rx="14" fill="#0A101F"/><rect x="6" y="6" width="548" height="228" rx="11" fill="#0D1628" stroke="#25344C"/><circle cx="26" cy="27" r="5" fill="#FF5F57"/><circle cx="42" cy="27" r="5" fill="#FEBC2E"/><circle cx="58" cy="27" r="5" fill="#28C840"/><text x="280" y="31" font-size="11" fill="#8291A8" text-anchor="middle" letter-spacing=".3">~/shipped/saarthi-cli</text><text x="538" y="31" font-size="11" fill="#8291A8" text-anchor="end">#05</text><path d="M6 48H554" stroke="#25344C"/><rect x="6" y="47" width="548" height="2" fill="#22D3EE" opacity=".7"><animate attributeName="width" values="0;0;548" keyTimes="0;0.419;1" dur="1.72s" calcMode="spline" keySplines="0 0 1 1;0.4 0 0.2 1" fill="freeze"/></rect><rect x="22" y="62" width="136.4" height="20" rx="10" fill="#22D3EE" fill-opacity=".12" stroke="#22D3EE" stroke-opacity=".45"/><text x="32" y="76" font-size="10" fill="#22D3EE" font-weight="700" letter-spacing=".8">AI · TERMINAL APP</text><clipPath id="type"><rect x="16" y="90" width="528" height="80"><animate attributeName="width" values="0;0;528" keyTimes="0;0.575;1" dur="2.12s" fill="freeze"/></rect></clipPath><g clip-path="url(#type)"><text x="22" y="114" font-size="21" fill="#DDE7F5" font-weight="700">saarthi-cli</text><text x="22" y="138" font-size="13" fill="#8291A8">A terminal AI chat app with persistent memory, streaming replies,</text><text x="22" y="156" font-size="13" fill="#8291A8">saved sessions and multi-provider models.</text></g><rect x="22" y="178" width="55.9" height="22" rx="4" fill="#101B30" stroke="#25344C"/><text x="30" y="193" font-size="11" fill="#DDE7F5">Python</text><rect x="85.9" y="178" width="69.2" height="22" rx="4" fill="#101B30" stroke="#25344C"/><text x="93.9" y="193" font-size="11" fill="#DDE7F5">LLM APIs</text><rect x="163.2" y="178" width="36" height="22" rx="4" fill="#101B30" stroke="#25344C"/><text x="171.2" y="193" font-size="11" fill="#DDE7F5">CLI</text><path d="M22 208H538" stroke="#25344C" stroke-dasharray="1 5"/><circle cx="26" cy="222" r="3.5" fill="#10B981"><animate attributeName="opacity" values="1;.3;1" dur="1.6s" begin="0.72s" repeatCount="indefinite"/></circle><text x="36" y="226" font-size="10" fill="#10B981" font-weight="700" letter-spacing=".6">SOURCE ON GITHUB</text><text x="538" y="226" font-size="10" fill="#8291A8" text-anchor="end">CODE</text></svg>